<svg width="70" height="70" viewBox="0 0 70 70" fill="none" xmlns="http://www.w3.org/2000/svg">
<rect width="70" height="70" rx="20" fill="#A1A0A0"/>
<path d="M42.44 34.12C43.2667 34.3333 44.0533 34.7733 44.8 35.44C45.5733 36.08 46.2 36.8933 46.68 37.88C47.1867 38.8667 47.44 39.96 47.44 41.16C47.44 44.0933 46.3867 46.4 44.28 48.08C42.2 49.7333 39.1067 50.56 35 50.56C33.0533 50.56 31.1067 50.3467 29.16 49.92C27.2133 49.4667 25.48 48.92 23.96 48.28V39.76C25.6133 40.48 27.32 41.0667 29.08 41.52C30.8667 41.9733 32.56 42.2 34.16 42.2C35.28 42.2 36.0933 42.0267 36.6 41.68C37.1333 41.3333 37.4 40.76 37.4 39.96C37.4 38.4133 36.4667 37.64 34.6 37.64H31.72V31.08H33.96C35.72 31.08 36.6 30.3333 36.6 28.84C36.6 27.4 35.72 26.68 33.96 26.68C32.68 26.68 31.3467 26.9867 29.96 27.6C28.5733 28.1867 27.2267 28.96 25.92 29.92L23.56 21.4C25.1867 20.5467 27.04 19.8267 29.12 19.24C31.2 18.6267 33.2933 18.32 35.4 18.32C39.08 18.32 41.9067 19.0933 43.88 20.64C45.8533 22.1867 46.84 24.3733 46.84 27.2C46.84 28.96 46.4267 30.4133 45.6 31.56C44.7733 32.68 43.72 33.5333 42.44 34.12Z" fill="white"/>
</svg>
