<svg width="44" height="48" viewBox="0 0 44 48" fill="none" xmlns="http://www.w3.org/2000/svg">
<path d="M38.875 5.625H30.5139L29.5998 2.88394C29.3204 2.04372 28.7834 1.31288 28.065 0.795184C27.3467 0.277492 26.4835 -0.000736994 25.598 1.46618e-06H18.402C17.5164 -0.000586337 16.6531 0.277681 15.9346 0.795332C15.216 1.31298 14.6787 2.04374 14.3988 2.88394L13.4858 5.625H5.125C2.79869 5.625 0.90625 7.51744 0.90625 9.84375V12.6563C0.90625 14.2226 2.31634 14.0625 3.82966 14.0625H41.6875C42.4648 14.0625 43.0938 13.4335 43.0938 12.6563V9.84375C43.0938 7.51744 41.2013 5.625 38.875 5.625ZM16.4512 5.625L17.0672 3.77381C17.1605 3.49371 17.3397 3.25011 17.5793 3.07756C17.8189 2.90501 18.1067 2.81228 18.402 2.8125H25.598C26.2037 2.8125 26.7407 3.19838 26.9315 3.77381L27.5481 5.625H16.4512ZM4.06244 17.0625L6.30466 44.163C6.50378 46.3507 8.30969 48 10.5056 48H33.4945C35.6904 48 37.4963 46.3507 37.6968 44.1506L39.9377 17.0625H4.06244ZM14.9688 40.9688C14.9688 42.8225 12.1562 42.8301 12.1562 40.9688V21.2813C12.1562 19.4275 14.9688 19.4199 14.9688 21.2813V40.9688ZM23.4062 40.9688C23.4062 42.8225 20.5938 42.8301 20.5938 40.9688V21.2813C20.5938 19.4275 23.4062 19.4199 23.4062 21.2813V40.9688ZM31.8438 40.9688C31.8438 42.8225 29.0312 42.8301 29.0312 40.9688V21.2813C29.0312 20.504 29.6602 19.875 30.4375 19.875C31.2148 19.875 31.8438 20.504 31.8438 21.2813V40.9688Z" fill="#EB4B62"/>
</svg>
