<svg width="512" height="512" viewBox="0 0 512 512" fill="none" xmlns="http://www.w3.org/2000/svg">
<g clip-path="url(#clip0_57_45)">
<path d="M292.545 325.52C287.599 330.452 281.579 334.173 274.956 336.391L211.315 357.604C206.727 359.135 201.922 359.915 197.086 359.914C185.065 359.914 173.764 355.233 165.265 346.733C153.134 334.599 148.97 316.955 154.395 300.682L175.609 237.044C177.825 230.42 181.545 224.399 186.479 219.454L323.934 82H55C24.673 82 0 106.673 0 137V457C0 487.327 24.673 512 55 512H375C405.327 512 430 487.327 430 457V188.066L292.545 325.52Z" fill="#3A82F7"/>
<path d="M207.693 240.668C206.046 242.314 204.806 244.322 204.07 246.531L182.856 310.17C181.975 312.813 181.848 315.648 182.488 318.359C183.128 321.07 184.51 323.549 186.48 325.519C188.449 327.489 190.929 328.871 193.64 329.511C196.351 330.151 199.186 330.024 201.829 329.143L265.469 307.93C267.678 307.194 269.686 305.954 271.332 304.307L458.716 116.924L395.077 53.285L207.693 240.668ZM476.393 7.32201C466.63 -2.44099 450.801 -2.44099 441.038 7.32201L416.289 32.071L479.929 95.711L504.678 70.962C514.441 61.199 514.441 45.37 504.678 35.607L476.393 7.32201Z" fill="#3A82F7"/>
</g>
<defs>
<clipPath id="clip0_57_45">
<rect width="512" height="512" fill="white"/>
</clipPath>
</defs>
</svg>
