<svg width="70" height="70" viewBox="0 0 70 70" fill="none" xmlns="http://www.w3.org/2000/svg">
<rect width="70" height="70" rx="20" fill="#A1A0A0"/>
<path d="M38.7527 29.44C41.7393 29.44 44.0193 30.32 45.5927 32.08C47.166 33.84 47.9527 36.2267 47.9527 39.24C47.9527 41.5067 47.4327 43.4933 46.3927 45.2C45.3793 46.9067 43.8593 48.2267 41.8327 49.16C39.806 50.0933 37.3527 50.56 34.4727 50.56C32.526 50.56 30.5793 50.3467 28.6327 49.92C26.686 49.4667 24.9527 48.92 23.4327 48.28V39.76C26.8993 41.3867 30.046 42.2 32.8727 42.2C34.3393 42.2 35.4327 41.9067 36.1527 41.32C36.8727 40.7067 37.2327 39.76 37.2327 38.48C37.2327 37.5467 37.0193 36.8133 36.5927 36.28C36.166 35.7467 35.486 35.48 34.5527 35.48C33.8327 35.48 33.246 35.6667 32.7927 36.04C32.366 36.3867 32.0193 36.8933 31.7527 37.56H23.3527L25.0727 18.88H46.3527V26.64H33.0727L32.7127 30.76C34.3927 29.88 36.406 29.44 38.7527 29.44Z" fill="white"/>
</svg>
