<svg width="37" height="29" viewBox="0 0 37 29" fill="none" xmlns="http://www.w3.org/2000/svg">
<path d="M11.3154 22.9329C10.3119 23.3705 9.14352 22.9119 8.70588 21.9083L8.3697 21.1376C7.58749 19.3441 8.01718 17.2473 9.43894 15.9197C10.5083 14.9212 10.7778 13.3154 10.094 12.0149C9.34521 10.5907 7.63887 9.92828 6.12484 10.4739C4.523 11.0501 3.62625 12.7795 4.08196 14.4093C4.12319 14.5562 4.1745 14.7002 4.23552 14.8402C4.67316 15.8437 4.21449 17.012 3.21094 17.4497C2.20746 17.8873 1.03907 17.4287 0.60143 16.4251C0.467127 16.1172 0.354292 15.8003 0.263733 15.4768C-0.748203 11.8573 1.23563 8.0209 4.7807 6.74397C8.14596 5.53128 11.9388 7.00405 13.6032 10.1699C15.1159 13.0472 14.5161 16.6032 12.1446 18.8176C11.9484 19.0007 11.8918 19.2961 12.0036 19.5526L12.3398 20.3233C12.7776 21.3269 12.3189 22.4953 11.3154 22.9329ZM13.6734 28.3395C12.6699 28.7771 11.5015 28.3184 11.0639 27.3149L11.0573 27.2998C10.6197 26.2964 11.0784 25.128 12.0819 24.6903C13.0854 24.2527 14.2538 24.7114 14.6914 25.7149L14.698 25.73C15.1356 26.7335 14.6769 27.9018 13.6734 28.3395Z" fill="white"/>
<path d="M1.87004 14.7764C1.96048 15.0999 2.07336 15.4167 2.20788 15.7244C2.51978 16.4396 3.20269 16.8785 3.93257 16.9123C3.73667 17.1447 3.48968 17.3285 3.21093 17.4496C2.20803 17.887 1.03927 17.4289 0.601489 16.4251C0.467294 16.1172 0.354697 15.8003 0.264515 15.4767C-0.748216 11.8568 1.23634 8.02053 4.78097 6.7436C4.90736 6.69813 5.03509 6.65646 5.16398 6.61865C2.40285 8.2507 0.98139 11.5971 1.87004 14.7764ZM11.0451 15.2189C9.62349 16.5464 9.19337 18.6439 9.97557 20.4373L10.3116 21.2079C10.6235 21.9231 11.3074 22.3615 12.0372 22.3953C11.8413 22.6277 11.5943 22.8116 11.3156 22.9326C10.3118 23.3704 9.14394 22.9119 8.70615 21.9081L8.37012 21.1375C7.58799 19.3441 8.01717 17.2471 9.43965 15.9192C10.5087 14.9203 10.7778 13.3155 10.0939 12.015C9.45128 10.7916 8.10201 10.1303 6.775 10.3147C7.06063 10.0811 7.3841 9.89803 7.73143 9.77341C9.24547 9.22759 10.9517 9.8899 11.7004 11.3144C12.3842 12.6149 12.1143 14.2201 11.0451 15.2189ZM14.3952 27.8019C14.1993 28.0342 13.9523 28.2181 13.6735 28.3392C12.6698 28.777 11.5019 28.3184 11.0641 27.3147L11.0574 27.2992C10.62 26.2963 11.0781 25.1275 12.0819 24.6898C12.3603 24.5678 12.6631 24.5119 12.9666 24.5264C12.4953 25.0853 12.3514 25.8847 12.6628 26.599L12.6696 26.6145C12.9815 27.3295 13.6654 27.7681 14.3952 27.8019Z" fill="#F1F1F1"/>
<path d="M27.1276 22.7396C26.0702 22.4563 25.4425 21.3692 25.7259 20.3118L25.9435 19.4996C26.45 17.6096 28.0932 16.2379 30.0324 16.0863C31.4911 15.9721 32.7028 14.8845 32.9788 13.4413C33.2812 11.861 32.3599 10.2794 30.836 9.76215C29.2243 9.21408 27.4451 10.0073 26.7854 11.5658C26.7259 11.7064 26.6763 11.8509 26.6369 11.9984C26.3535 13.0559 25.2665 13.6835 24.209 13.4001C23.1516 13.1168 22.5239 12.0298 22.8073 10.9723C22.8943 10.6478 23.0036 10.3297 23.1344 10.0203C24.5995 6.55933 28.5423 4.79634 32.1103 6.00787C35.4976 7.15755 37.5451 10.6736 36.873 14.1865C36.2621 17.3793 33.5763 19.7859 30.3416 20.039C30.074 20.0599 29.8456 20.2555 29.7732 20.5258L29.5555 21.338C29.2721 22.3954 28.1851 23.023 27.1276 22.7396ZM25.6009 28.437C24.5435 28.1537 23.9158 27.0667 24.1992 26.0092L24.2035 25.9933C24.4868 24.9358 25.5738 24.3082 26.6313 24.5916C27.6888 24.8749 28.3164 25.9619 28.033 27.0194L28.0288 27.0353C27.7454 28.0928 26.6585 28.7204 25.6009 28.437Z" fill="white"/>
<path d="M24.8269 10.4741C24.696 10.7834 24.5868 11.1015 24.5001 11.426C24.2982 12.1796 24.5586 12.9485 25.1081 13.43C24.8101 13.4895 24.5024 13.4794 24.2089 13.4002C23.1521 13.117 22.5239 12.0302 22.8073 10.9724C22.8943 10.6479 23.0038 10.33 23.1351 10.0208C24.5998 6.55896 28.543 4.79654 32.1107 6.00779C32.2379 6.05101 32.3637 6.09805 32.4881 6.14885C29.3116 5.70369 26.114 7.43416 24.8269 10.4741ZM31.7251 16.5397C29.786 16.6915 28.1421 18.0634 27.6358 19.9532L27.4182 20.7652C27.2163 21.5189 27.4776 22.288 28.0272 22.7694C27.7291 22.829 27.4214 22.8188 27.128 22.7397C26.0701 22.4562 25.4429 21.3697 25.7263 20.3118L25.9439 19.4998C26.4503 17.61 28.0931 16.2379 30.0333 16.0863C31.4919 15.9718 32.7027 14.8847 32.9787 13.4415C33.2388 12.0843 32.5961 10.7261 31.4435 10.0431C31.8124 10.0385 32.1795 10.097 32.5288 10.216C34.053 10.7331 34.9741 12.3146 34.6715 13.8951C34.3955 15.3384 33.1838 16.4252 31.7251 16.5397ZM26.5005 28.4669C26.2025 28.5264 25.8947 28.5162 25.6013 28.4371C24.5435 28.1537 23.9162 27.0671 24.1996 26.0093L24.204 25.9931C24.4872 24.9362 25.574 24.308 26.6317 24.5914C26.9254 24.6696 27.197 24.8146 27.4253 25.0152C26.7084 25.1583 26.0975 25.6937 25.8958 26.4465L25.8914 26.4627C25.6896 27.2163 25.9509 27.9854 26.5005 28.4669Z" fill="#F1F1F1"/>
<path d="M19.3893 20.1057C18.1601 20.1057 17.1637 19.1092 17.1637 17.88V16.936C17.1637 14.7392 18.547 12.774 20.606 12.0461C22.1548 11.4985 23.1528 9.96688 23.0328 8.32153C22.9014 6.51988 21.4427 5.07225 19.6398 4.95417C17.7327 4.82821 16.0336 6.20545 15.771 8.08725C15.7475 8.25701 15.7357 8.42821 15.7357 8.59961C15.7357 9.82878 14.7392 10.8252 13.5101 10.8252C12.2809 10.8252 11.2844 9.82878 11.2844 8.59961C11.2844 8.22282 11.3107 7.84342 11.3625 7.47205C11.9457 3.29293 15.7092 0.235297 19.9306 0.512292C23.9382 0.77476 27.1805 3.99282 27.4724 7.99785C27.7377 11.6379 25.5244 15.0284 22.0899 16.2428C21.8059 16.3432 21.615 16.6217 21.615 16.936V17.88C21.6149 19.1092 20.6185 20.1057 19.3893 20.1057ZM19.3893 26.7281C18.1601 26.7281 17.1637 25.7316 17.1637 24.5025V24.484C17.1637 23.2549 18.1601 22.2584 19.3893 22.2584C20.6185 22.2584 21.6149 23.2549 21.6149 24.484V24.5025C21.6149 25.7316 20.6185 26.7281 19.3893 26.7281Z" fill="white"/>
<path d="M13.3299 7.4723C13.2778 7.84579 13.2518 8.22246 13.2521 8.59957C13.2521 9.47557 13.7579 10.2337 14.4938 10.5961C14.1879 10.7473 13.8512 10.8257 13.51 10.8251C12.2815 10.8251 11.2844 9.8291 11.2844 8.59957C11.2844 8.2227 11.3111 7.8436 11.3633 7.4723C11.9459 3.29238 15.71 0.235183 19.9311 0.512032C20.0823 0.522005 20.2324 0.536458 20.3813 0.555391C16.8073 0.995634 13.8424 3.80156 13.3299 7.4723ZM22.5736 12.0458C20.5148 12.774 19.1307 14.7395 19.1307 16.9361V17.8799C19.1307 18.7559 19.6377 19.5141 20.3736 19.8765C20.0678 20.0278 19.731 20.1061 19.3898 20.1056C18.1603 20.1056 17.1642 19.1094 17.1642 17.8799V16.9361C17.1642 14.7394 18.5472 12.774 20.6071 12.0458C22.1557 11.4978 23.1529 9.96698 23.0328 8.32171C22.9205 6.77421 21.8288 5.48803 20.3803 5.08225C20.7791 4.97003 21.1942 4.92679 21.6076 4.95442C23.4107 5.07228 24.8693 6.51969 25.0004 8.32171C25.1205 9.96698 24.1222 11.4977 22.5736 12.0458ZM20.3736 26.4988C20.0677 26.65 19.731 26.7284 19.3897 26.7278C18.1602 26.7278 17.1642 25.7318 17.1642 24.5023V24.4833C17.1642 23.2549 18.1602 22.2578 19.3897 22.2578C19.7433 22.2578 20.0768 22.34 20.3736 22.4868C19.6376 22.8503 19.1307 23.6085 19.1307 24.4833V24.5023C19.1307 25.3783 19.6376 26.1364 20.3736 26.4988Z" fill="#F7F7F7"/>
</svg>
