<svg width="70" height="70" viewBox="0 0 70 70" fill="none" xmlns="http://www.w3.org/2000/svg">
<rect width="70" height="70" rx="20" fill="#BB600C"/>
<path d="M38.96 30.36C41.92 30.36 44.2267 31.2133 45.88 32.92C47.56 34.6267 48.4 37 48.4 40.04C48.4 43.4267 47.28 46.0267 45.04 47.84C42.8267 49.6533 39.6933 50.56 35.64 50.56C30.9467 50.56 27.4533 49.2933 25.16 46.76C22.8667 44.2 21.72 40.2933 21.72 35.04C21.72 29.28 23.0667 25.0533 25.76 22.36C28.48 19.6667 32.2133 18.32 36.96 18.32C38.9067 18.32 40.72 18.4933 42.4 18.84C44.08 19.16 45.4267 19.5867 46.44 20.12V28.2C45.4267 27.7467 44.2667 27.3867 42.96 27.12C41.6533 26.8267 40.2667 26.68 38.8 26.68C34.9867 26.68 33.08 28.0933 33.08 30.92V31.4C33.9067 31.1067 34.84 30.8667 35.88 30.68C36.92 30.4667 37.9467 30.36 38.96 30.36ZM35.8 43.44C36.7067 43.44 37.3867 43.1733 37.84 42.64C38.2933 42.08 38.52 41.2133 38.52 40.04C38.52 38.9733 38.28 38.1467 37.8 37.56C37.3467 36.9467 36.64 36.64 35.68 36.64C34.7733 36.64 33.9067 36.8133 33.08 37.16V40.36C33.08 41.4267 33.3067 42.2133 33.76 42.72C34.2133 43.2 34.8933 43.44 35.8 43.44Z" fill="white"/>
</svg>
