<svg width="70" height="70" viewBox="0 0 70 70" fill="none" xmlns="http://www.w3.org/2000/svg">
<rect width="70" height="70" rx="20" fill="#397FF1"/>
<path d="M22.48 46.56C22.48 44.2667 22.8133 42.24 23.48 40.48C24.1733 38.72 25.2933 37.0667 26.84 35.52C28.3867 33.9467 30.52 32.32 33.24 30.64C34.04 30.1333 34.6 29.7067 34.92 29.36C35.2667 28.9867 35.44 28.5467 35.44 28.04C35.44 26.9467 34.6533 26.4 33.08 26.4C31.9067 26.4 30.56 26.7067 29.04 27.32C27.52 27.9333 26.1467 28.7067 24.92 29.64L22.56 21.12C24.2667 20.2667 26.2267 19.5467 28.44 18.96C30.6533 18.3467 32.88 18.04 35.12 18.04C38.8 18.04 41.6533 18.8533 43.68 20.48C45.7067 22.1067 46.72 24.4133 46.72 27.4C46.72 29 46.36 30.4133 45.64 31.64C44.9467 32.84 44.0933 33.8533 43.08 34.68C42.0933 35.5067 40.8 36.4533 39.2 37.52C37.4133 38.6933 36.0933 39.7067 35.24 40.56C34.4133 41.3867 34 42.3467 34 43.44H38.84V41.16H47.04V50H22.48V46.56Z" fill="white"/>
</svg>
